ffmpeg version 2025-06-11-git-f019dd69f0-full_build-www.gyan.dev Copyright (c) 2000-2025 the FFmpeg developers
  built with gcc 15.1.0 (Rev4, Built by MSYS2 project)
  configuration: --enable-gpl --enable-version3 --enable-static --disable-w32threads --disable-autodetect --enable-fontconfig --enable-iconv --enable-gnutls --enable-lcms2 --enable-libxml2 --enable-gmp --enable-bzlib --enable-lzma --enable-libsnappy --enable-zlib --enable-librist --enable-libsrt --enable-libssh --enable-libzmq --enable-avisynth --enable-libbluray --enable-libcaca --enable-libdvdnav --enable-libdvdread --enable-sdl2 --enable-libaribb24 --enable-libaribcaption --enable-libdav1d --enable-libdavs2 --enable-libopenjpeg --enable-libquirc --enable-libuavs3d --enable-libxevd --enable-libzvbi --enable-liboapv --enable-libqrencode --enable-librav1e --enable-libsvtav1 --enable-libvvenc --enable-libwebp --enable-libx264 --enable-libx265 --enable-libxavs2 --enable-libxeve --enable-libxvid --enable-libaom --enable-libjxl --enable-libvpx --enable-mediafoundation --enable-libass --enable-frei0r --enable-libfreetype --enable-libfribidi --enable-libharfbuzz --enable-liblensfun --enable-libvidstab --enable-libvmaf --enable-libzimg --enable-amf --enable-cuda-llvm --enable-cuvid --enable-dxva2 --enable-d3d11va --enable-d3d12va --enable-ffnvcodec --enable-libvpl --enable-nvdec --enable-nvenc --enable-vaapi --enable-libshaderc --enable-vulkan --enable-libplacebo --enable-opencl --enable-libcdio --enable-openal --enable-libgme --enable-libmodplug --enable-libopenmpt --enable-libopencore-amrwb --enable-libmp3lame --enable-libshine --enable-libtheora --enable-libtwolame --enable-libvo-amrwbenc --enable-libcodec2 --enable-libilbc --enable-libgsm --enable-liblc3 --enable-libopencore-amrnb --enable-libopus --enable-libspeex --enable-libvorbis --enable-ladspa --enable-libbs2b --enable-libflite --enable-libmysofa --enable-librubberband --enable-libsoxr --enable-chromaprint
  libavutil      60.  3.100 / 60.  3.100
  libavcodec     62.  3.101 / 62.  3.101
  libavformat    62.  1.100 / 62.  1.100
  libavdevice    62.  0.100 / 62.  0.100
  libavfilter    11.  0.100 / 11.  0.100
  libswscale      9.  0.100 /  9.  0.100
  libswresample   6.  0.100 /  6.  0.100
Input #0, rtsp, from 'rtsp://192.168.1.100:8080/h264.sdp':
  Metadata:
    title           : IP Webcam
  Duration: N/A, start: 0.033367, bitrate: N/A
  Stream #0:0: Video: h264 (High), yuv420p(tv, progressive), 720x480, 30 fps, 29.97 tbr, 90k tbn, Start 0.033367
[out#0/hls @ 0000027238898e40] Codec AVOption b:a (set bitrate (in bits/s)) has not been used for any stream. The most likely reason is either wrong type (e.g. a video option with no video streams) or that it is a private option of some decoder which was not actually used for any stream.
Stream mapping:
  Stream #0:0 -> #0:0 (h264 (native) -> h264 (libx264))
Press [q] to stop, [?] for help
[libx264 @ 000002723835eb40] using cpu capabilities: MMX2 SSE2Fast SSSE3 SSE4.2 AVX FMA3 BMI2 AVX2
[libx264 @ 000002723835eb40] profile High, level 3.0, 4:2:0, 8-bit
[libx264 @ 000002723835eb40] 264 - core 165 r3221 291476d - H.264/MPEG-4 AVC codec - Copyleft 2003-2025 - http://www.videolan.org/x264.html - options: cabac=1 ref=3 deblock=1:0:0 analyse=0x3:0x113 me=hex subme=7 psy=1 psy_rd=1.00:0.00 mixed_ref=1 me_range=16 chroma_me=1 trellis=1 8x8dct=1 cqm=0 deadzone=21,11 fast_pskip=1 chroma_qp_offset=-2 threads=13 lookahead_threads=2 sliced_threads=0 nr=0 decimate=1 interlaced=0 bluray_compat=0 constrained_intra=0 bframes=3 b_pyramid=2 b_adapt=1 b_bias=0 direct=1 weightb=1 open_gop=0 weightp=2 keyint=250 keyint_min=25 scenecut=40 intra_refresh=0 rc_lookahead=40 rc=crf mbtree=1 crf=23.0 qcomp=0.60 qpmin=0 qpmax=69 qpstep=4 ip_ratio=1.40 aq=1:1.00
Output #0, hls, to 'C:\Users\fatha\Documents\GitHub\smart-farm-watcher\media\hls_streams\41\stream.m3u8':
  Metadata:
    title           : IP Webcam
    encoder         : Lavf62.1.100
  Stream #0:0: Video: h264, yuv420p(tv, progressive), 640x426, q=2-31, 29.97 fps, 90k tbn
    Metadata:
      encoder         : Lavc62.3.101 libx264
    Side data:
      cpb: bitrate max/min/avg: 0/0/0 buffer size: 0 vbv_delay: N/A
frame=    0 fps=0.0 q=0.0 size=       0KiB time=N/A bitrate=N/A dup=2 drop=0 speed=N/A elapsed=0:00:00.51    frame=    0 fps=0.0 q=0.0 size=       0KiB time=N/A bitrate=N/A dup=2 drop=0 speed=N/A elapsed=0:00:01.04    frame=    7 fps=4.5 q=29.0 size=N/A time=00:00:00.16 bitrate=N/A dup=2 drop=0 speed=0.108x elapsed=0:00:01.54    frame=   22 fps= 11 q=29.0 size=N/A time=00:00:00.66 bitrate=N/A dup=2 drop=0 speed=0.323x elapsed=0:00:02.06    frame=   37 fps= 14 q=29.0 size=N/A time=00:00:01.16 bitrate=N/A dup=2 drop=0 speed=0.452x elapsed=0:00:02.58    frame=   54 fps= 17 q=29.0 size=N/A time=00:00:01.73 bitrate=N/A dup=2 drop=0 speed=0.561x elapsed=0:00:03.09    frame=   68 fps= 19 q=29.0 size=N/A time=00:00:02.20 bitrate=N/A dup=2 drop=0 speed=0.609x elapsed=0:00:03.61    frame=   83 fps= 20 q=29.0 size=N/A time=00:00:02.70 bitrate=N/A dup=2 drop=0 speed=0.656x elapsed=0:00:04.12    frame=   98 fps= 21 q=29.0 size=N/A time=00:00:03.20 bitrate=N/A dup=2 drop=0 speed=0.69x elapsed=0:00:04.64    frame=  113 fps= 22 q=29.0 size=N/A time=00:00:03.70 bitrate=N/A dup=2 drop=0 speed=0.718x elapsed=0:00:05.16    frame=  131 fps= 23 q=29.0 size=N/A time=00:00:04.30 bitrate=N/A dup=2 drop=0 speed=0.758x elapsed=0:00:05.68    frame=  146 fps= 24 q=29.0 size=N/A time=00:00:04.80 bitrate=N/A dup=2 drop=0 speed=0.777x elapsed=0:00:06.18    frame=  160 fps= 24 q=29.0 size=N/A time=00:00:05.27 bitrate=N/A dup=2 drop=0 speed=0.786x elapsed=0:00:06.70    frame=  175 fps= 24 q=29.0 size=N/A time=00:00:05.77 bitrate=N/A dup=2 drop=0 speed= 0.8x elapsed=0:00:07.21    frame=  192 fps= 25 q=29.0 size=N/A time=00:00:06.33 bitrate=N/A dup=2 drop=0 speed=0.82x elapsed=0:00:07.73    frame=  207 fps= 25 q=29.0 size=N/A time=00:00:06.84 bitrate=N/A dup=2 drop=0 speed=0.829x elapsed=0:00:08.25    frame=  221 fps= 25 q=29.0 size=N/A time=00:00:07.30 bitrate=N/A dup=2 drop=0 speed=0.834x elapsed=0:00:08.76    frame=  238 fps= 26 q=29.0 size=N/A time=00:00:07.87 bitrate=N/A dup=2 drop=0 speed=0.848x elapsed=0:00:09.28    [hls @ 0000027238307600] Opening 'C:\Users\fatha\Documents\GitHub\smart-farm-watcher\media\hls_streams\41\stream000.ts' for writing
[hls @ 0000027238307600] Opening 'C:\Users\fatha\Documents\GitHub\smart-farm-watcher\media\hls_streams\41\stream.m3u8.tmp' for writing
frame=  255 fps= 26 q=29.0 size=N/A time=00:00:08.44 bitrate=N/A dup=2 drop=0 speed=0.861x elapsed=0:00:09.80    frame=  270 fps= 26 q=29.0 size=N/A time=00:00:08.94 bitrate=N/A dup=2 drop=0 speed=0.866x elapsed=0:00:10.32    frame=  284 fps= 26 q=29.0 size=N/A time=00:00:09.40 bitrate=N/A dup=2 drop=0 speed=0.869x elapsed=0:00:10.82    frame=  293 fps= 26 q=29.0 size=N/A time=00:00:09.70 bitrate=N/A dup=2 drop=0 speed=0.855x elapsed=0:00:11.35    frame=  317 fps= 27 q=29.0 size=N/A time=00:00:10.51 bitrate=N/A dup=2 drop=0 speed=0.885x elapsed=0:00:11.86    frame=  331 fps= 27 q=29.0 size=N/A time=00:00:10.97 bitrate=N/A dup=2 drop=0 speed=0.887x elapsed=0:00:12.37    frame=  346 fps= 27 q=29.0 size=N/A time=00:00:11.47 bitrate=N/A dup=2 drop=0 speed=0.89x elapsed=0:00:12.89    frame=  362 fps= 27 q=29.0 size=N/A time=00:00:12.01 bitrate=N/A dup=2 drop=0 speed=0.895x elapsed=0:00:13.41    frame=  375 fps= 27 q=29.0 size=N/A time=00:00:12.44 bitrate=N/A dup=2 drop=0 speed=0.894x elapsed=0:00:13.91    frame=  393 fps= 27 q=29.0 size=N/A time=00:00:13.04 bitrate=N/A dup=2 drop=0 speed=0.903x elapsed=0:00:14.44    [hls @ 0000027238307600] Opening 'C:\Users\fatha\Documents\GitHub\smart-farm-watcher\media\hls_streams\41\stream001.ts' for writing
[hls @ 0000027238307600] Opening 'C:\Users\fatha\Documents\GitHub\smart-farm-watcher\media\hls_streams\41\stream.m3u8.tmp' for writing
frame=  410 fps= 27 q=29.0 size=N/A time=00:00:13.61 bitrate=N/A dup=2 drop=0 speed=0.91x elapsed=0:00:14.95    frame=  423 fps= 27 q=29.0 size=N/A time=00:00:14.04 bitrate=N/A dup=2 drop=0 speed=0.908x elapsed=0:00:15.46    frame=  439 fps= 27 q=29.0 size=N/A time=00:00:14.58 bitrate=N/A dup=2 drop=0 speed=0.912x elapsed=0:00:15.98    frame=  454 fps= 28 q=29.0 size=N/A time=00:00:15.08 bitrate=N/A dup=2 drop=0 speed=0.914x elapsed=0:00:16.50    frame=  470 fps= 28 q=29.0 size=N/A time=00:00:15.61 bitrate=N/A dup=2 drop=0 speed=0.918x elapsed=0:00:17.01    frame=  486 fps= 28 q=29.0 size=N/A time=00:00:16.14 bitrate=N/A dup=2 drop=0 speed=0.921x elapsed=0:00:17.53    frame=  502 fps= 28 q=29.0 size=N/A time=00:00:16.68 bitrate=N/A dup=2 drop=0 speed=0.924x elapsed=0:00:18.05    frame=  516 fps= 28 q=29.0 size=N/A time=00:00:17.15 bitrate=N/A dup=2 drop=0 speed=0.923x elapsed=0:00:18.57    frame=  531 fps= 28 q=29.0 size=N/A time=00:00:17.65 bitrate=N/A dup=2 drop=0 speed=0.925x elapsed=0:00:19.07    frame=  548 fps= 28 q=29.0 size=N/A time=00:00:18.21 bitrate=N/A dup=2 drop=0 speed=0.93x elapsed=0:00:19.59    frame=  563 fps= 28 q=29.0 size=N/A time=00:00:18.71 bitrate=N/A dup=2 drop=0 speed=0.931x elapsed=0:00:20.11    frame=  578 fps= 28 q=29.0 size=N/A time=00:00:19.21 bitrate=N/A dup=2 drop=0 speed=0.931x elapsed=0:00:20.63    [hls @ 0000027238307600] Opening 'C:\Users\fatha\Documents\GitHub\smart-farm-watcher\media\hls_streams\41\stream002.ts' for writing
[hls @ 0000027238307600] Opening 'C:\Users\fatha\Documents\GitHub\smart-farm-watcher\media\hls_streams\41\stream.m3u8.tmp' for writing
frame=  592 fps= 28 q=29.0 size=N/A time=00:00:19.68 bitrate=N/A dup=2 drop=0 speed=0.931x elapsed=0:00:21.13    frame=  609 fps= 28 q=29.0 size=N/A time=00:00:20.25 bitrate=N/A dup=2 drop=0 speed=0.935x elapsed=0:00:21.65    frame=  623 fps= 28 q=29.0 size=N/A time=00:00:20.72 bitrate=N/A dup=2 drop=0 speed=0.934x elapsed=0:00:22.17    frame=  638 fps= 28 q=29.0 size=N/A time=00:00:21.22 bitrate=N/A dup=2 drop=0 speed=0.935x elapsed=0:00:22.69    frame=  655 fps= 28 q=29.0 size=N/A time=00:00:21.78 bitrate=N/A dup=2 drop=0 speed=0.939x elapsed=0:00:23.20    frame=  671 fps= 28 q=29.0 size=N/A time=00:00:22.32 bitrate=N/A dup=2 drop=0 speed=0.941x elapsed=0:00:23.72    frame=  686 fps= 28 q=29.0 size=N/A time=00:00:22.82 bitrate=N/A dup=2 drop=0 speed=0.941x elapsed=0:00:24.24    frame=  703 fps= 28 q=29.0 size=N/A time=00:00:23.39 bitrate=N/A dup=2 drop=0 speed=0.945x elapsed=0:00:24.74    frame=  717 fps= 28 q=29.0 size=N/A time=00:00:23.85 bitrate=N/A dup=2 drop=0 speed=0.944x elapsed=0:00:25.26    frame=  731 fps= 28 q=29.0 size=N/A time=00:00:24.32 bitrate=N/A dup=2 drop=0 speed=0.943x elapsed=0:00:25.78    frame=  748 fps= 28 q=29.0 size=N/A time=00:00:24.89 bitrate=N/A dup=2 drop=0 speed=0.947x elapsed=0:00:26.29    frame=  764 fps= 28 q=29.0 size=N/A time=00:00:25.42 bitrate=N/A dup=2 drop=0 speed=0.948x elapsed=0:00:26.81    frame=  778 fps= 28 q=29.0 size=N/A time=00:00:25.89 bitrate=N/A dup=2 drop=0 speed=0.947x elapsed=0:00:27.33    frame=  794 fps= 29 q=29.0 size=N/A time=00:00:26.42 bitrate=N/A dup=2 drop=0 speed=0.949x elapsed=0:00:27.84    [hls @ 0000027238307600] Opening 'C:\Users\fatha\Documents\GitHub\smart-farm-watcher\media\hls_streams\41\stream003.ts' for writing
[hls @ 0000027238307600] Opening 'C:\Users\fatha\Documents\GitHub\smart-farm-watcher\media\hls_streams\41\stream.m3u8.tmp' for writing
frame=  809 fps= 29 q=29.0 size=N/A time=00:00:26.92 bitrate=N/A dup=2 drop=0 speed=0.949x elapsed=0:00:28.36    frame=  824 fps= 29 q=29.0 size=N/A time=00:00:27.42 bitrate=N/A dup=2 drop=0 speed=0.95x elapsed=0:00:28.87    [hls @ 0000027238307600] Opening 'C:\Users\fatha\Documents\GitHub\smart-farm-watcher\media\hls_streams\41\stream004.ts' for writing
[hls @ 0000027238307600] Opening 'C:\Users\fatha\Documents\GitHub\smart-farm-watcher\media\hls_streams\41\stream.m3u8.tmp' for writing
frame=  841 fps= 29 q=29.0 size=N/A time=00:00:27.99 bitrate=N/A dup=2 drop=0 speed=0.952x elapsed=0:00:29.39    frame=  857 fps= 29 q=29.0 size=N/A time=00:00:28.52 bitrate=N/A dup=2 drop=0 speed=0.954x elapsed=0:00:29.91    [hls @ 0000027238307600] Opening 'C:\Users\fatha\Documents\GitHub\smart-farm-watcher\media\hls_streams\41\stream005.ts' for writing
[hls @ 0000027238307600] Opening 'C:\Users\fatha\Documents\GitHub\smart-farm-watcher\media\hls_streams\41\stream.m3u8.tmp' for writing
frame=  871 fps= 29 q=29.0 size=N/A time=00:00:28.99 bitrate=N/A dup=2 drop=0 speed=0.953x elapsed=0:00:30.42    [hls @ 0000027238307600] Opening 'C:\Users\fatha\Documents\GitHub\smart-farm-watcher\media\hls_streams\41\stream006.ts' for writing
[hls @ 0000027238307600] Opening 'C:\Users\fatha\Documents\GitHub\smart-farm-watcher\media\hls_streams\41\stream.m3u8.tmp' for writing
frame=  888 fps= 29 q=29.0 size=N/A time=00:00:29.56 bitrate=N/A dup=2 drop=0 speed=0.955x elapsed=0:00:30.93    frame=  903 fps= 29 q=29.0 size=N/A time=00:00:30.06 bitrate=N/A dup=2 drop=0 speed=0.956x elapsed=0:00:31.46    frame=  918 fps= 29 q=29.0 size=N/A time=00:00:30.56 bitrate=N/A dup=2 drop=0 speed=0.956x elapsed=0:00:31.97    frame=  934 fps= 29 q=29.0 size=N/A time=00:00:31.09 bitrate=N/A dup=2 drop=0 speed=0.957x elapsed=0:00:32.48    frame=  950 fps= 29 q=29.0 size=N/A time=00:00:31.63 bitrate=N/A dup=2 drop=0 speed=0.959x elapsed=0:00:32.99    frame=  963 fps= 29 q=29.0 size=N/A time=00:00:32.06 bitrate=N/A dup=2 drop=0 speed=0.957x elapsed=0:00:33.52    frame=  980 fps= 29 q=29.0 size=N/A time=00:00:32.63 bitrate=N/A dup=2 drop=0 speed=0.959x elapsed=0:00:34.02    frame=  995 fps= 29 q=29.0 size=N/A time=00:00:33.13 bitrate=N/A dup=2 drop=0 speed=0.959x elapsed=0:00:34.54    frame= 1008 fps= 29 q=29.0 size=N/A time=00:00:33.56 bitrate=N/A dup=2 drop=0 speed=0.957x elapsed=0:00:35.06    frame= 1027 fps= 29 q=29.0 size=N/A time=00:00:34.20 bitrate=N/A dup=2 drop=0 speed=0.961x elapsed=0:00:35.58    frame= 1038 fps= 29 q=29.0 size=N/A time=00:00:34.56 bitrate=N/A dup=2 drop=0 speed=0.957x elapsed=0:00:36.10    frame= 1057 fps= 29 q=29.0 size=N/A time=00:00:35.20 bitrate=N/A dup=2 drop=0 speed=0.962x elapsed=0:00:36.60    frame= 1071 fps= 29 q=29.0 size=N/A time=00:00:35.66 bitrate=N/A dup=2 drop=0 speed=0.961x elapsed=0:00:37.12    frame= 1088 fps= 29 q=29.0 size=N/A time=00:00:36.23 bitrate=N/A dup=2 drop=0 speed=0.962x elapsed=0:00:37.64    frame= 1103 fps= 29 q=29.0 size=N/A time=00:00:36.73 bitrate=N/A dup=2 drop=0 speed=0.963x elapsed=0:00:38.15    frame= 1117 fps= 29 q=29.0 size=N/A time=00:00:37.20 bitrate=N/A dup=2 drop=0 speed=0.962x elapsed=0:00:38.67    frame= 1134 fps= 29 q=29.0 size=N/A time=00:00:37.77 bitrate=N/A dup=2 drop=0 speed=0.964x elapsed=0:00:39.19    [hls @ 0000027238307600] Opening 'C:\Users\fatha\Documents\GitHub\smart-farm-watcher\media\hls_streams\41\stream007.ts' for writing
[hls @ 0000027238307600] Opening 'C:\Users\fatha\Documents\GitHub\smart-farm-watcher\media\hls_streams\41\stream.m3u8.tmp' for writing
frame= 1149 fps= 29 q=29.0 size=N/A time=00:00:38.27 bitrate=N/A dup=2 drop=0 speed=0.964x elapsed=0:00:39.71    frame= 1166 fps= 29 q=29.0 size=N/A time=00:00:38.83 bitrate=N/A dup=2 drop=0 speed=0.966x elapsed=0:00:40.22    frame= 1180 fps= 29 q=29.0 size=N/A time=00:00:39.30 bitrate=N/A dup=2 drop=0 speed=0.965x elapsed=0:00:40.74    frame= 1195 fps= 29 q=29.0 size=N/A time=00:00:39.80 bitrate=N/A dup=2 drop=0 speed=0.965x elapsed=0:00:41.24    frame= 1211 fps= 29 q=29.0 size=N/A time=00:00:40.30 bitrate=N/A dup=2 drop=0 speed=0.965x elapsed=0:00:41.76    frame= 1228 fps= 29 q=29.0 size=N/A time=00:00:40.90 bitrate=N/A dup=2 drop=0 speed=0.967x elapsed=0:00:42.28    frame= 1242 fps= 29 q=29.0 size=N/A time=00:00:41.37 bitrate=N/A dup=2 drop=0 speed=0.967x elapsed=0:00:42.80    frame= 1259 fps= 29 q=29.0 size=N/A time=00:00:41.94 bitrate=N/A dup=2 drop=0 speed=0.968x elapsed=0:00:43.31    frame= 1274 fps= 29 q=29.0 size=N/A time=00:00:42.44 bitrate=N/A dup=2 drop=0 speed=0.968x elapsed=0:00:43.83    frame= 1287 fps= 29 q=29.0 size=N/A time=00:00:42.87 bitrate=N/A dup=2 drop=0 speed=0.967x elapsed=0:00:44.35    frame= 1303 fps= 29 q=29.0 size=N/A time=00:00:43.41 bitrate=N/A dup=2 drop=0 speed=0.968x elapsed=0:00:44.85    frame= 1320 fps= 29 q=29.0 size=N/A time=00:00:43.97 bitrate=N/A dup=2 drop=0 speed=0.969x elapsed=0:00:45.37    frame= 1335 fps= 29 q=29.0 size=N/A time=00:00:44.47 bitrate=N/A dup=2 drop=0 speed=0.969x elapsed=0:00:45.89    frame= 1351 fps= 29 q=29.0 size=N/A time=00:00:45.01 bitrate=N/A dup=2 drop=0 speed=0.97x elapsed=0:00:46.40    frame= 1366 fps= 29 q=29.0 size=N/A time=00:00:45.51 bitrate=N/A dup=2 drop=0 speed=0.97x elapsed=0:00:46.92    frame= 1381 fps= 29 q=29.0 size=N/A time=00:00:46.01 bitrate=N/A dup=2 drop=0 speed=0.97x elapsed=0:00:47.44    [hls @ 0000027238307600] Opening 'C:\Users\fatha\Documents\GitHub\smart-farm-watcher\media\hls_streams\41\stream008.ts' for writing
[hls @ 0000027238307600] Opening 'C:\Users\fatha\Documents\GitHub\smart-farm-watcher\media\hls_streams\41\stream.m3u8.tmp' for writing
frame= 1398 fps= 29 q=29.0 size=N/A time=00:00:46.57 bitrate=N/A dup=2 drop=0 speed=0.971x elapsed=0:00:47.94    frame= 1413 fps= 29 q=29.0 size=N/A time=00:00:47.08 bitrate=N/A dup=2 drop=0 speed=0.971x elapsed=0:00:48.46    frame= 1428 fps= 29 q=29.0 size=N/A time=00:00:47.58 bitrate=N/A dup=2 drop=0 speed=0.971x elapsed=0:00:48.98    frame= 1444 fps= 29 q=29.0 size=N/A time=00:00:48.11 bitrate=N/A dup=2 drop=0 speed=0.972x elapsed=0:00:49.49    frame= 1460 fps= 29 q=29.0 size=N/A time=00:00:48.64 bitrate=N/A dup=2 drop=0 speed=0.973x elapsed=0:00:50.01    frame= 1474 fps= 29 q=29.0 size=N/A time=00:00:49.11 bitrate=N/A dup=2 drop=0 speed=0.972x elapsed=0:00:50.53    frame= 1489 fps= 29 q=29.0 size=N/A time=00:00:49.61 bitrate=N/A dup=2 drop=0 speed=0.972x elapsed=0:00:51.04    frame= 1506 fps= 29 q=29.0 size=N/A time=00:00:50.18 bitrate=N/A dup=2 drop=0 speed=0.973x elapsed=0:00:51.56    frame= 1522 fps= 29 q=29.0 size=N/A time=00:00:50.71 bitrate=N/A dup=2 drop=0 speed=0.974x elapsed=0:00:52.08    frame= 1536 fps= 29 q=29.0 size=N/A time=00:00:51.18 bitrate=N/A dup=2 drop=0 speed=0.973x elapsed=0:00:52.58    [hls @ 0000027238307600] Opening 'C:\Users\fatha\Documents\GitHub\smart-farm-watcher\media\hls_streams\41\stream009.ts' for writing
[hls @ 0000027238307600] Opening 'C:\Users\fatha\Documents\GitHub\smart-farm-watcher\media\hls_streams\41\stream.m3u8.tmp' for writing
frame= 1552 fps= 29 q=29.0 size=N/A time=00:00:51.71 bitrate=N/A dup=2 drop=0 speed=0.974x elapsed=0:00:53.11    frame= 1567 fps= 29 q=29.0 size=N/A time=00:00:52.21 bitrate=N/A dup=2 drop=0 speed=0.974x elapsed=0:00:53.63    frame= 1582 fps= 29 q=29.0 size=N/A time=00:00:52.71 bitrate=N/A dup=2 drop=0 speed=0.974x elapsed=0:00:54.13    frame= 1599 fps= 29 q=29.0 size=N/A time=00:00:53.28 bitrate=N/A dup=2 drop=0 speed=0.975x elapsed=0:00:54.66    frame= 1614 fps= 29 q=29.0 size=N/A time=00:00:53.78 bitrate=N/A dup=2 drop=0 speed=0.975x elapsed=0:00:55.16    frame= 1630 fps= 29 q=29.0 size=N/A time=00:00:54.32 bitrate=N/A dup=2 drop=0 speed=0.975x elapsed=0:00:55.69    frame= 1644 fps= 29 q=29.0 size=N/A time=00:00:54.78 bitrate=N/A dup=2 drop=0 speed=0.975x elapsed=0:00:56.21    frame= 1661 fps= 29 q=29.0 size=N/A time=00:00:55.35 bitrate=N/A dup=2 drop=0 speed=0.976x elapsed=0:00:56.71    frame= 1677 fps= 29 q=29.0 size=N/A time=00:00:55.88 bitrate=N/A dup=2 drop=0 speed=0.976x elapsed=0:00:57.23    frame= 1692 fps= 29 q=29.0 size=N/A time=00:00:56.38 bitrate=N/A dup=2 drop=0 speed=0.976x elapsed=0:00:57.76    frame= 1706 fps= 29 q=29.0 size=N/A time=00:00:56.85 bitrate=N/A dup=2 drop=0 speed=0.976x elapsed=0:00:58.26    frame= 1721 fps= 29 q=29.0 size=N/A time=00:00:57.35 bitrate=N/A dup=2 drop=0 speed=0.976x elapsed=0:00:58.78    frame= 1737 fps= 29 q=29.0 size=N/A time=00:00:57.89 bitrate=N/A dup=2 drop=0 speed=0.976x elapsed=0:00:59.30    frame= 1753 fps= 29 q=29.0 size=N/A time=00:00:58.42 bitrate=N/A dup=2 drop=0 speed=0.977x elapsed=0:00:59.81    frame= 1768 fps= 29 q=29.0 size=N/A time=00:00:58.92 bitrate=N/A dup=2 drop=0 speed=0.977x elapsed=0:01:00.33    frame= 1785 fps= 29 q=29.0 size=N/A time=00:00:59.49 bitrate=N/A dup=2 drop=0 speed=0.978x elapsed=0:01:00.85    [hls @ 0000027238307600] Opening 'C:\Users\fatha\Documents\GitHub\smart-farm-watcher\media\hls_streams\41\stream010.ts' for writing
[hls @ 0000027238307600] Opening 'C:\Users\fatha\Documents\GitHub\smart-farm-watcher\media\hls_streams\41\stream.m3u8.tmp' for writing
frame= 1799 fps= 29 q=29.0 size=N/A time=00:00:59.95 bitrate=N/A dup=2 drop=0 speed=0.977x elapsed=0:01:01.35    frame= 1815 fps= 29 q=29.0 size=N/A time=00:01:00.49 bitrate=N/A dup=2 drop=0 speed=0.978x elapsed=0:01:01.87    frame= 1831 fps= 29 q=29.0 size=N/A time=00:01:01.02 bitrate=N/A dup=2 drop=0 speed=0.978x elapsed=0:01:02.38    frame= 1846 fps= 29 q=29.0 size=N/A time=00:01:01.52 bitrate=N/A dup=2 drop=0 speed=0.978x elapsed=0:01:02.90    frame= 1862 fps= 29 q=29.0 size=N/A time=00:01:02.06 bitrate=N/A dup=2 drop=0 speed=0.978x elapsed=0:01:03.42    frame= 1877 fps= 29 q=29.0 size=N/A time=00:01:02.56 bitrate=N/A dup=2 drop=0 speed=0.978x elapsed=0:01:03.94    frame= 1892 fps= 29 q=29.0 size=N/A time=00:01:03.06 bitrate=N/A dup=2 drop=0 speed=0.978x elapsed=0:01:04.45    frame= 1908 fps= 29 q=29.0 size=N/A time=00:01:03.59 bitrate=N/A dup=2 drop=0 speed=0.979x elapsed=0:01:04.97    frame= 1923 fps= 29 q=29.0 size=N/A time=00:01:04.09 bitrate=N/A dup=2 drop=0 speed=0.979x elapsed=0:01:05.48    frame= 1938 fps= 29 q=29.0 size=N/A time=00:01:04.59 bitrate=N/A dup=2 drop=0 speed=0.979x elapsed=0:01:06.00    frame= 1952 fps= 29 q=29.0 size=N/A time=00:01:05.06 bitrate=N/A dup=2 drop=0 speed=0.978x elapsed=0:01:06.52    frame= 1969 fps= 29 q=29.0 size=N/A time=00:01:05.63 bitrate=N/A dup=2 drop=0 speed=0.979x elapsed=0:01:07.02    [hls @ 0000027238307600] Opening 'C:\Users\fatha\Documents\GitHub\smart-farm-watcher\media\hls_streams\41\stream011.ts' for writing
[hls @ 0000027238307600] Opening 'C:\Users\fatha\Documents\GitHub\smart-farm-watcher\media\hls_streams\41\stream.m3u8.tmp' for writing
frame= 2009 fps= 30 q=29.0 size=N/A time=00:01:06.96 bitrate=N/A dup=2 drop=0 speed=0.991x elapsed=0:01:07.54    [hls @ 0000027238307600] Opening 'C:\Users\fatha\Documents\GitHub\smart-farm-watcher\media\hls_streams\41\stream012.ts' for writing
[hls @ 0000027238307600] Opening 'C:\Users\fatha\Documents\GitHub\smart-farm-watcher\media\hls_streams\41\stream.m3u8.tmp' for writing
[out#0/hls @ 0000027238898e40] video:5863KiB audio:0KiB subtitle:0KiB other streams:0KiB global headers:0KiB muxing overhead: unknown
frame= 2044 fps= 30 q=-1.0 Lsize=N/A time=00:01:08.13 bitrate=N/A dup=2 drop=0 speed=1.01x elapsed=0:01:07.64    
[libx264 @ 000002723835eb40] frame I:13    Avg QP:22.08  size: 17749
[libx264 @ 000002723835eb40] frame P:563   Avg QP:23.92  size:  6492
[libx264 @ 000002723835eb40] frame B:1468  Avg QP:27.82  size:  1442
[libx264 @ 000002723835eb40] consecutive B-frames:  2.9%  2.7%  4.0% 90.4%
[libx264 @ 000002723835eb40] mb I  I16..4: 10.3% 68.9% 20.8%
[libx264 @ 000002723835eb40] mb P  I16..4:  3.1% 11.5%  1.9%  P16..4: 41.7% 17.3%  9.3%  0.0%  0.0%    skip:15.2%
[libx264 @ 000002723835eb40] mb B  I16..4:  0.4%  1.1%  0.1%  B16..8: 43.5%  4.1%  0.6%  direct: 1.9%  skip:48.3%  L0:43.3% L1:51.7% BI: 5.1%
[libx264 @ 000002723835eb40] 8x8 transform intra:69.5% inter:73.9%
[libx264 @ 000002723835eb40] coded y,uvDC,uvAC intra: 54.8% 52.2% 10.3% inter: 12.6% 13.2% 0.9%
[libx264 @ 000002723835eb40] i16 v,h,dc,p: 25% 21%  7% 47%
[libx264 @ 000002723835eb40] i8 v,h,dc,ddl,ddr,vr,hd,vl,hu: 26% 17% 17%  5%  7%  8%  7%  6%  7%
[libx264 @ 000002723835eb40] i4 v,h,dc,ddl,ddr,vr,hd,vl,hu: 34% 18% 12%  5%  7%  8%  6%  5%  5%
[libx264 @ 000002723835eb40] i8c dc,h,v,p: 52% 18% 25%  5%
[libx264 @ 000002723835eb40] Weighted P-Frames: Y:8.7% UV:3.7%
[libx264 @ 000002723835eb40] ref P L0: 60.0% 16.2% 16.5%  6.9%  0.4%
[libx264 @ 000002723835eb40] ref B L0: 90.4%  7.4%  2.2%
[libx264 @ 000002723835eb40] ref B L1: 94.6%  5.4%
[libx264 @ 000002723835eb40] kb/s:704.12
